<?xml version="1.0" ?><svg style="enable-background:new 0 0 64 64;" version="1.1" viewBox="0 0 64 64" xml:space="preserve" xmlns="http://www.w3.org/2000/svg" xmlns:xlink="http://www.w3.org/1999/xlink"><style type="text/css">
	.st0{fill:#FFF;}
</style><g id="GUIDES_64"/><g id="Layer_3"/><g id="Layer_2"><path class="st0" d="M58.6,32.1h-3.3c-0.8,0-1.4-0.6-1.4-1.4v-3.3c0-0.8-0.6-1.4-1.4-1.4h-1.3c-0.8,0-1.4,0.6-1.4,1.4v3.3   c0,0.8-0.6,1.4-1.4,1.4h-3.3c-0.8,0-1.4,0.6-1.4,1.4v1.3c0,0.8,0.6,1.4,1.4,1.4h3.3c0.8,0,1.4,0.6,1.4,1.4v3.3   c0,0.8,0.6,1.4,1.4,1.4h1.3c0.8,0,1.4-0.6,1.4-1.4v-3.3c0-0.8,0.6-1.4,1.4-1.4h3.3c0.8,0,1.4-0.6,1.4-1.4v-1.3   C60,32.7,59.4,32.1,58.6,32.1z"/><path class="st0" d="M23.1,52C32.7,51.5,40,43.2,40,33.6v0c0-2-1.6-3.5-3.5-3.5H23.5c-0.9,0-1.6,0.7-1.6,1.6v4.8   c0,0.9,0.7,1.6,1.6,1.6h6.2c0.7,0,1.1,0.7,0.7,1.3c-2,3.2-5.7,5.2-9.9,4.6c-4.5-0.6-8-4.3-8.5-8.8c-0.7-6,4-11.2,9.9-11.2   c1.8,0,3.4,0.5,4.8,1.2c0.7,0.4,1.6,0.3,2.2-0.3l3.2-3.2c0.8-0.8,0.7-2.2-0.3-2.8c-3-2-6.6-3.1-10.5-3c-9.5,0.3-17.1,8.4-17.2,17.9   C4,44.3,12.5,52.7,23.1,52z"/></g></svg>